<svg xmlns="http://www.w3.org/2000/svg" width="820" height="452" viewBox="0 0 820 452" role="img" aria-labelledby="title desc" font-family="-apple-system, 'Segoe UI', Roboto, Helvetica, Arial, sans-serif" font-size="13">
<title id="title">Time to first byte of the HTML document</title>
<desc id="desc">Client view: how long the visitor waits before the page starts to arrive</desc>
<rect width="820" height="452" rx="8" fill="#fcfcfb"/>
<text x="16" y="24" font-size="16" font-weight="600" fill="#0b0b0b">Time to first byte of the HTML document</text>
<text x="16" y="44" fill="#52514e">Client view: how long the visitor waits before the page starts to arrive</text>
<text x="16" y="62" fill="#52514e" font-size="11">Median of 3 visits · 24 images per page (3000×2000 JPEG → 800×600) · TYPO3 14.3.6 · PHP 8.4.24 · Apache + PHP-FPM in Docker</text>
<rect x="16" y="74" width="12" height="12" rx="3" fill="#2a78d6"/>
<text x="33" y="84" fill="#52514e">TYPO3 core f:image</text>
<rect x="168.8" y="74" width="12" height="12" rx="3" fill="#eb6834"/>
<text x="185.8" y="84" fill="#52514e">nr_image_optimize nrio:sourceSet</text>
<line x1="266" y1="92" x2="266" y2="412" stroke="#e5e4e0" stroke-width="1"/>
<text x="266" y="428" text-anchor="middle" fill="#52514e" font-size="11">0 ms</text>
<line x1="380.5" y1="92" x2="380.5" y2="412" stroke="#e5e4e0" stroke-width="1"/>
<text x="380.5" y="428" text-anchor="middle" fill="#52514e" font-size="11">2.50 s</text>
<line x1="495" y1="92" x2="495" y2="412" stroke="#e5e4e0" stroke-width="1"/>
<text x="495" y="428" text-anchor="middle" fill="#52514e" font-size="11">5.00 s</text>
<line x1="609.5" y1="92" x2="609.5" y2="412" stroke="#e5e4e0" stroke-width="1"/>
<text x="609.5" y="428" text-anchor="middle" fill="#52514e" font-size="11">7.50 s</text>
<line x1="724" y1="92" x2="724" y2="412" stroke="#e5e4e0" stroke-width="1"/>
<text x="724" y="428" text-anchor="middle" fill="#52514e" font-size="11">10.0 s</text>
<text x="254" y="126" text-anchor="end" fill="#0b0b0b">Page render only</text>
<path d="M266,109 h389.32581999999996 a4,4 0 0 1 4,4 v4 a4,4 0 0 1 -4,4 h-389.32581999999996 z" fill="#2a78d6"/>
<text x="665.32582" y="119" fill="#52514e" font-size="11">8.59 s</text>
<path d="M266,123 h4.5875 a4,4 0 0 1 4,4 v4 a4,4 0 0 1 -4,4 h-4.5875 z" fill="#eb6834"/>
<text x="280.5875" y="133" fill="#52514e" font-size="11">188 ms</text>
<text x="254" y="170" text-anchor="end" fill="#0b0b0b">Everything cold</text>
<path d="M266,153 h380.2162 a4,4 0 0 1 4,4 v4 a4,4 0 0 1 -4,4 h-380.2162 z" fill="#2a78d6"/>
<text x="656.2162000000001" y="163" fill="#52514e" font-size="11">8.39 s</text>
<path d="M266,167 h1.7020999999999997 a4,4 0 0 1 4,4 v4 a4,4 0 0 1 -4,4 h-1.7020999999999997 z" fill="#eb6834"/>
<text x="277.7021" y="177" fill="#52514e" font-size="11">125 ms</text>
<text x="254" y="214" text-anchor="end" fill="#0b0b0b">Everything cold, JPEG only</text>
<path d="M266,197 h422.26976 a4,4 0 0 1 4,4 v4 a4,4 0 0 1 -4,4 h-422.26976 z" fill="#2a78d6"/>
<text x="698.26976" y="207" fill="#52514e" font-size="11">9.31 s</text>
<path d="M266,211 h1.944840000000001 a4,4 0 0 1 4,4 v4 a4,4 0 0 1 -4,4 h-1.944840000000001 z" fill="#eb6834"/>
<text x="277.94484" y="221" fill="#52514e" font-size="11">130 ms</text>
<text x="254" y="258" text-anchor="end" fill="#0b0b0b">Page cache cold, variants exist</text>
<path d="M266,241 h5.2745 a4,4 0 0 1 4,4 v4 a4,4 0 0 1 -4,4 h-5.2745 z" fill="#2a78d6"/>
<text x="281.2745" y="251" fill="#52514e" font-size="11">203 ms</text>
<path d="M266,255 h2.1601 a4,4 0 0 1 4,4 v4 a4,4 0 0 1 -4,4 h-2.1601 z" fill="#eb6834"/>
<text x="278.1601" y="265" fill="#52514e" font-size="11">135 ms</text>
<text x="254" y="302" text-anchor="end" fill="#0b0b0b">Everything warm</text>
<path d="M266,285 h0 a4,4 0 0 1 4,4 v4 a4,4 0 0 1 -4,4 h-0 z" fill="#2a78d6"/>
<text x="276" y="295" fill="#52514e" font-size="11">49 ms</text>
<path d="M266,299 h0 a4,4 0 0 1 4,4 v4 a4,4 0 0 1 -4,4 h-0 z" fill="#eb6834"/>
<text x="276" y="309" fill="#52514e" font-size="11">53 ms</text>
<text x="254" y="346" text-anchor="end" fill="#0b0b0b">Page cache warm, variants purged</text>
<path d="M266,329 h0 a4,4 0 0 1 4,4 v4 a4,4 0 0 1 -4,4 h-0 z" fill="#2a78d6"/>
<text x="276" y="339" fill="#52514e" font-size="11">51 ms</text>
<path d="M266,343 h0 a4,4 0 0 1 4,4 v4 a4,4 0 0 1 -4,4 h-0 z" fill="#eb6834"/>
<text x="276" y="353" fill="#52514e" font-size="11">47 ms</text>
<text x="254" y="390" text-anchor="end" fill="#0b0b0b">Everything cold, lazy loading</text>
<path d="M266,373 h377.9491 a4,4 0 0 1 4,4 v4 a4,4 0 0 1 -4,4 h-377.9491 z" fill="#2a78d6"/>
<text x="653.9491" y="383" fill="#52514e" font-size="11">8.34 s</text>
<path d="M266,387 h1.5784399999999996 a4,4 0 0 1 4,4 v4 a4,4 0 0 1 -4,4 h-1.5784399999999996 z" fill="#eb6834"/>
<text x="277.57844" y="397" fill="#52514e" font-size="11">122 ms</text>
</svg>
